<svg width="278" height="270" viewBox="0 0 278 270" fill="none" xmlns="http://www.w3.org/2000/svg">
<g id="loader">
<circle id="Ellipse 1" cx="139.5" cy="135.5" r="127" fill="white" stroke="#E5E5E5" stroke-width="15"/>
<g id="outerarc">
<g id="Ellipse 2" filter="url(#filter0_d)">
<path d="M265.102 121.987C269.59 121.504 272.862 117.468 272.108 113.018C269.367 96.8503 263.688 81.2967 255.33 67.1354C245.585 50.6244 232.422 36.3875 216.725 25.3794C201.028 14.3713 183.159 6.84634 164.315 3.30903C145.472 -0.228283 126.09 0.303811 107.469 4.86964C88.8486 9.43546 71.4191 17.9295 56.3495 29.7823C41.2799 41.635 28.9184 56.5726 20.0939 73.5934C11.2693 90.6143 6.1857 109.325 5.18378 128.471C4.32445 144.893 6.48478 161.309 11.5335 176.911C12.9233 181.205 17.6912 183.27 21.8935 181.622V181.622C26.0958 179.974 28.1374 175.238 26.7838 170.932C22.5646 157.509 20.7701 143.42 21.5076 129.325C22.3878 112.506 26.8536 96.0693 34.6056 81.1171C42.3577 66.1648 53.2168 53.0427 66.455 42.6304C79.6932 32.2182 95.0044 24.7564 111.362 20.7455C127.72 16.7346 144.746 16.2671 161.299 19.3746C177.853 22.482 193.55 29.0924 207.34 38.7627C221.129 48.4329 232.692 60.9395 241.253 75.4439C248.426 87.5982 253.353 100.92 255.821 114.771C256.613 119.215 260.614 122.47 265.102 121.987V121.987Z" fill="#9464D1"/>
</g>
</g>
</g>
<defs>
<filter id="filter0_d" x="-1.52588e-05" y="0" width="277.216" height="191.188" filterUnits="userSpaceOnUse" color-interpolation-filters="sRGB">
<feFlood flood-opacity="0" result="BackgroundImageFix"/>
<feColorMatrix in="SourceAlpha" type="matrix" values="0 0 0 0 0 0 0 0 0 0 0 0 0 0 0 0 0 0 127 0"/>
<feOffset dy="4"/>
<feGaussianBlur stdDeviation="2.5"/>
<feColorMatrix type="matrix" values="0 0 0 0 0.581424 0 0 0 0 0.393316 0 0 0 0 0.820833 0 0 0 1 0"/>
<feBlend mode="normal" in2="BackgroundImageFix" result="effect1_dropShadow"/>
<feBlend mode="normal" in="SourceGraphic" in2="effect1_dropShadow" result="shape"/>
</filter>
</defs>
</svg>
